<?xml version="1.0" standalone="no"?>
<!DOCTYPE svg PUBLIC "-//W3C//DTD SVG 20010904//EN"
 "http://www.w3.org/TR/2001/REC-SVG-20010904/DTD/svg10.dtd">
<svg version="1.0" xmlns="http://www.w3.org/2000/svg"
 width="600.000000pt" height="600.000000pt" viewBox="0 0 600.000000 600.000000"
 preserveAspectRatio="xMidYMid meet">
<metadata>
Created by potrace 1.11, written by Peter Selinger 2001-2013
</metadata>
<g transform="translate(0.000000,600.000000) scale(0.100000,-0.100000)"
fill="#000000" stroke="none">
<path d="M0 3000 l0 -3000 3000 0 3000 0 0 3000 0 3000 -3000 0 -3000 0 0
-3000z m4693 1184 c8 -8 1 -22 -140 -274 -64 -113 -149 -266 -191 -340 -170
-305 -216 -388 -252 -450 -21 -36 -104 -184 -185 -330 -82 -146 -194 -346
-250 -445 -57 -99 -111 -196 -122 -215 -93 -173 -147 -235 -240 -276 l-55 -25
-568 0 c-561 0 -570 0 -619 22 -64 27 -123 91 -185 199 -87 153 -293 523 -345
620 -19 36 -79 144 -133 240 -55 96 -100 184 -101 195 -3 34 65 37 544 28
l454 -8 86 -155 c48 -85 120 -215 161 -288 109 -197 143 -254 153 -254 9 0 55
79 192 327 63 116 83 150 198 360 40 72 109 197 154 279 257 465 425 763 439
779 14 16 51 17 507 17 270 0 494 -3 498 -6z"/>
</g>
</svg>
